<svg xmlns="http://www.w3.org/2000/svg" xmlns:xlink="http://www.w3.org/1999/xlink" xmlns:lucid="lucid" width="640" height="242.99"><g transform="translate(0 -80)" lucid:page-tab-id="0_0"><path d="M506.5 257.9c.6.37 1.2.56 1.8.74.9.26 1.8.45 2.7.7 1.5.37 2.7.7 3.9 1.07.9.32 1.8.7 2.7 1.27.9.44 1.5.94 1.8 1.7.3.82.6 1.57.6 2.45 0 2.08-.9 3.85-2.4 5.1-2.1 1.4-4.2 1.96-6.6 1.83-1.8 0-3.6-.25-5.4-.88-1.5-.57-3-1.38-4.2-2.58l1.2-2.03c1.2 1.07 2.4 1.77 4.2 2.4 1.2.56 2.7.82 4.2.75 1.5.13 3-.25 4.5-1.07.9-.75 1.5-1.9 1.5-3.2 0-.64 0-1.14-.3-1.65-.3-.5-.9-.82-1.5-1.13-.6-.38-1.2-.63-2.1-.88-.9-.27-1.8-.52-3-.77-1.2-.3-2.4-.63-3.3-.94-.9-.33-1.8-.64-2.4-1.15-.9-.38-1.2-.88-1.5-1.5-.3-.77-.6-1.46-.6-2.28 0-1.13.3-2.08.9-3.08.3-.9.9-1.6 1.8-2.22.9-.63 1.5-1 2.7-1.26 1.2-.3 2.1-.5 3.3-.44 1.8-.06 3.3.2 4.8.82 1.5.57 2.4 1.26 3.6 2.33l-1.5 1.76c-.9-.95-1.8-1.58-3-2.02-1.5-.44-2.7-.7-3.9-.63-.9-.06-1.5.06-2.4.2-.6.18-1.2.37-1.8.8-.3.32-.9.76-1.2 1.33-.3.63-.3 1.2-.3 1.95 0 .5 0 1 .3 1.45.3.44.6.76.9 1zm-7.8 3.96h-19.8c.3 1.26.3 2.33.9 3.46.6 1 1.2 1.9 1.8 2.7.9.83 1.8 1.33 2.7 1.77 1.2.5 2.1.7 3.3.62.6 0 1.5-.06 2.1-.25.9-.25 1.5-.5 2.1-.88.6-.4 1.2-.77 1.5-1.27.6-.57.9-1.07 1.2-1.7l2.7.7c-.3.87-.9 1.57-1.5 2.32-.6.7-1.5 1.26-2.4 1.77-.9.56-1.8.94-2.7 1.2-1.2.3-2.1.43-3.3.43-3.3.07-6-1.2-8.1-3.6-1.2-1.12-2.1-2.32-2.7-3.77-.6-1.57-.6-3.02-.6-4.66 0-1.63 0-3.08.6-4.6 1.2-2.96 3.3-5.03 6.3-6.3 4.5-2 9.3-1 12.9 2.6 2.1 2.32 3 5.1 3 8.24v1.2zm-3.6-5.67c-.6-1.02-1.2-1.84-1.8-2.66-.9-.75-1.8-1.32-2.7-1.7-2.1-.88-4.2-.88-6.6 0-.9.38-1.8.95-2.4 1.7-.9.82-1.5 1.64-1.8 2.65-.6 1.12-.9 2.13-.9 3.4H496c-.3-1.27-.6-2.28-.9-3.4zm-24.6 16.1l-8.7-11.83-4.8 4.6v7.24h-3V240h3v21.98l12.9-12.66h3.6l-9.6 9.4 9.9 13.6h-3.3zm-24.6-26.5c-.9 0-1.8-.82-1.8-1.83 0-1 .9-1.83 1.8-1.83 1.2 0 1.8.82 1.8 1.83 0 1-.6 1.82-1.8 1.82zm-8.4 26.76c-1.2.07-2.4-.3-3.3-1.13-.9-.94-1.2-2.08-1.2-3.34V240h3v27.08c0 .76 0 1.45.6 2.02.6.57 1.2.76 2.1.76.3 0 .6-.07 1.2-.13.3-.13.6-.2 1.2-.38l.6 2.46c-.9.26-1.5.45-2.1.58-.9.12-1.5.18-2.1.18zM385 282.9c-12-1.58-26.1-2.7-38.7-3.22-.9 3.15-1.8 5.8-3.3 8.7-2.7 5.4-7.5 11.33-12 13.47-4.5 2.14-13.8 1.58-18.6-4.28-5.1-5.86-5.7-14.6 4.5-18.96 10.5-4.34 23.7-2.82 23.7-2.82 1.2-3.03 1.8-5.8 1.5-9.07 0 0-3 4.67-6.9 6.43-7.5 3.2-7.2-12.34-3-18.96 4.2-6.6 7.8-5.1 8.7-3.46 0 0-5.1 8.83-4.5 14.3.6 5.17 5.4-1.57 6-2.83.6-1.2.6-8.2 5.4-12.34 0 0 2.7-1.52 4.8.5 0 0-3.3 2.65-4.2 13.86 0 4.4-.6 8.05-1.5 12.4 8.7.8 17.1 1.5 24 2.07 12.3 1 25.8 2.27 38.1-1.2 5.7-1.7 12.6-5.4 14.4-11.58-.3.87 0 2.07-.3 3-4.2 16.77-24.9 15.63-38.1 14zm-65.1-1.2s-8.7 3.65-5.4 11.02c2.1 4.9 8.4 4.54 8.4 4.54s5.7 0 10.2-6.18c6-7.8 6.6-11.9 6.6-11.9s-13.2-.63-19.8 2.52zm86.1-8.57c-6 2.27-6-6.36-5.4-9.32.9-3 4.8-8.68 4.8-8.68l-3.9-.13c-1.8 5.85-4.8 10.45-9 14.8-.3.5-.6.87-1.2 1.25-.3.25-.3.38-.3.38h-.3c-.9 1-2.4 1.5-3.9 1.7-3.3.2-3.9-5.1-3.9-5.1-4.2 5.42-8.1 5.86-9.9 2.96-1.5-2.9-.9-6.8-.6-9.7.3-1.6.6-2.97 1.2-4.48-.9-.07-1.5-.25-2.1-.7.9 11.03-7.5 15.12-7.5 15.12-6 4.1-12.9 1-13.5-5.04-.3-5.16 4.5-16.8 10.8-17.9 6.3-1 6.9 3.73 6.9 3.73-6.3-1.4-10.5 8.57-10.5 8.57-4.2 10.58-.3 10.45.9 10.26 4.2-.5 6.9-7.87 7.8-11.27.6-3.48-2.1-3.85-2.1-3.85.6-3.47 4.2-2.7 5.4-2.6 1.2.08 1.2 1.46 3.3 1.4.6.06 1.2-.13 1.8-.57v-.44-.06c1.2-2.27 2.7-4.28 4.2-4.85 1.8-.88 3.6-.5 4.8.88-3.3 4.6-5.1 12.23-3.9 15.44.9 3.22 3.3-1.7 3.3-1.7 1.5-7.3 3.9-11.9 6.9-13.73 1.5-1.12 3.6-.93 4.8.45-2.7 3.72-4.2 7.56-4.5 12.1 0 1.95.3 4.28 1.2 4.1 0-.07.3-.07.3-.2.3-.3.9-.57 1.2-1 .3-.26.3-.45.3-.45 0-.06.3-.12.3-.25 3.9-4.22 5.1-10.96 5.1-10.96-2.4-1.65-1.5-6.06-1.5-6.06.6-5.73 5.7-5.22 5.7-5.22-.9 1.26-.3 4.9-.3 4.9 2.1 4.54 7.8 2.65 10.2 1.27 2.7-1.4 1.8 1.56 1.8 1.56-3 3.4-5.1 6.68-6.6 10.9-2.4 6.1-.3 7.24.9 6.93 1.2-.26 3.3-2.9 3.6-6.3.3-2.2.9-4.04 1.8-6 1.8-2.07 4.2-.62 2.7 3.6s-5.1 11.9-11.1 14.23zm-91.2-3.9c-.9 1.13-2.1 1.95-3.3 2.58-1.5.7-2.7.95-4.2.95-1.8.07-3.6-.44-5.1-1.45-1.5-1-2.7-2.2-3.6-3.77v14.23h-3v-32.5h2.7v4.47c.9-1.5 2.1-2.58 3.6-3.53 1.5-.94 3-1.38 4.8-1.32 1.8-.06 3 .25 4.5.95 1.2.7 2.4 1.5 3.3 2.7 1.2 1.14 1.8 2.33 2.4 3.78.6 1.53.9 2.9.9 4.5 0 1.62-.3 3.07-.9 4.58-.3 1.52-1.2 2.65-2.1 3.85zm-.9-11.97c-.3-1.14-.9-2.02-1.8-2.96-.9-.88-1.5-1.5-2.7-2.02-1.2-.56-2.1-.75-3.3-.75-.9 0-1.5.12-2.4.44-.9.3-1.5.7-2.4 1.26-.9.5-1.2 1.07-1.8 1.82-.6.63-.9 1.33-.9 2.15v7.1c.3.9.6 1.6 1.2 2.28.6.76 1.2 1.32 1.8 1.9.9.5 1.5.87 2.4 1.2 1.8.68 3.9.62 5.7-.4 1.2-.5 1.8-1.2 2.7-2.07.9-.93 1.2-1.82 1.8-2.95.3-1.2.3-2.2.3-3.46 0-1.27 0-2.34-.6-3.54zm-26.7 11.97c-.9 1.13-2.1 1.95-3.6 2.58-3 1.33-6 1.33-9 0-1.5-.62-2.7-1.44-3.9-2.57-.9-1.2-1.8-2.33-2.1-3.85-.6-1.5-.9-2.9-.9-4.53 0-1.64.3-3.1.9-4.6.6-1.5 1.2-2.64 2.4-3.84.9-1.13 2.1-1.94 3.6-2.57 3-1.33 6-1.33 9 0 1.5.63 2.7 1.44 3.6 2.58 1.2 1.2 1.8 2.34 2.4 3.85 1.2 3.1 1.2 6.1 0 9.13-.6 1.52-1.2 2.65-2.4 3.85zm-.3-12.03c-.6-1.14-1.2-2.08-1.8-2.96-.9-.9-1.8-1.52-2.7-2.02-1.2-.5-2.1-.7-3.3-.7-1.2 0-2.1.2-3.3.7-.9.5-1.8 1.13-2.7 2.02-2.4 2.96-3 6.67-1.8 10.26.6 1.14.9 2.02 1.8 2.9.9.88 1.5 1.5 2.7 2 1.2.52 2.1.7 3.3.7 1.2 0 2.1-.24 3.3-.75.9-.5 1.8-1.07 2.7-1.95.6-.95 1.2-1.83 1.8-2.96.9-2.46.9-4.8 0-7.24zm-27 2.26c0-2.64-.6-4.6-1.5-5.92-.9-1.32-2.1-2-3.9-1.95-.9 0-1.5.18-2.4.5-1.8.75-3.3 1.88-4.5 3.46-.3.88-.9 1.64-1.2 2.64v14.1h-3V240h3v14.5c.9-1.78 2.4-3.1 3.9-4.1 1.8-1.08 3.3-1.52 5.4-1.52 1.2-.06 2.1.2 3.3.7.9.5 1.5 1.13 2.1 2.07.9 1 1.2 1.96 1.5 3.1.3 1.44.3 2.63.3 4.08v13.48h-3v-12.84zm-30.3 13.3c-1.8 0-3.3-.26-5.1-.9-1.8-.56-3-1.37-4.5-2.57l1.5-2.03c1.2 1.07 2.4 1.77 3.9 2.4 1.5.56 2.7.82 4.2.75 1.8.13 3-.25 4.5-1.07 1.2-.75 1.8-1.9 1.8-3.2 0-.64-.3-1.14-.6-1.65-.3-.5-.6-.82-1.2-1.13-.9-.38-1.5-.63-2.4-.88-.6-.27-1.8-.52-3-.77-1.2-.3-2.4-.63-3.3-.94-.9-.33-1.8-.64-2.4-1.15-.6-.38-1.2-.88-1.5-1.5-.3-.77-.6-1.46-.3-2.28-.3-1.13 0-2.08.6-3.08.3-.9.9-1.6 1.8-2.22.9-.63 1.8-1 2.7-1.26 1.2-.3 2.1-.5 3.3-.44 1.8-.06 3.3.2 4.8.82 1.5.57 2.7 1.26 3.6 2.33l-1.5 1.76c-.9-.95-1.8-1.58-3-2.02-1.5-.44-2.4-.7-3.9-.63-.9-.06-1.5.06-2.1.2-.9.18-1.2.37-1.8.8-.6.32-.9.76-1.2 1.33-.3.63-.6 1.2-.6 1.95 0 .5 0 1 .3 1.45.3.44.6.76 1.2 1 .6.4.9.58 1.8.76.6.26 1.5.45 2.4.7 1.5.37 3 .7 3.9 1.07 1.2.32 2.1.7 3 1.27.6.44 1.2.94 1.5 1.7.6.82.6 1.57.6 2.45 0 2.08-.6 3.85-2.4 5.1-2.1 1.4-4.2 1.96-6.6 1.83zm217.8-.45h-3v-23.04h3v23.05z" stroke="#000" stroke-opacity="0" stroke-width=".99" fill="#23232a"/><path d="M20 100h600v180H20z" stroke="#000" stroke-opacity="0" stroke-width="2" fill="#fff" fill-opacity="0"/><use xlink:href="#a" transform="matrix(1,0,0,1,25,105) translate(22.866666666666617 125)"/><path d="M160 240h60v40h-60z" stroke="#000" stroke-opacity="0" stroke-width="2" fill="#fff" fill-opacity="0"/><use xlink:href="#b" transform="matrix(1,0,0,1,165,245) translate(1.009999999999998 21)"/><defs><path d="M560-201C553-53 438-5 270-4L36-2v-714l255-1c151-8 248 43 252 178 2 88-48 142-117 167 76 23 139 78 134 171zm-211-12c1-78-33-108-113-104v214c86 2 112-26 113-110zm-8-306c0-79-26-102-105-100v203c79 1 105-24 105-103" id="c"/><path d="M244-2H50v-566l194-29v59c38-42 110-69 179-37v186l-179-61V-2" id="d"/><path d="M275-384c4-62 1-117-59-113-66 4-121 29-171 47l-5-85c130-56 418-117 418 108V-2H276v-32C233-18 205 8 152 7 28 5-29-120 8-244c30-102 136-137 267-140zm-91 197c-1 54 36 72 91 65v-168c-59 6-91 43-91 103" id="e"/><path d="M356-353c6-77-24-118-102-101V-2H60v-570l194-24v53c45-19 82-48 140-46 106 4 156 85 156 207V-2H356v-351" id="f"/><path d="M0-269c0-210 125-344 352-315 30 3 69 11 105 20l3 104c-52-12-114-34-175-34-86 0-76 96-80 185-7 153 94 219 243 176l16 95C381-15 324 7 240 7 80 7 0-106 0-269" id="g"/><path d="M290-561c144-77 264 15 264 178V-2H360c-1-135 3-277-2-407-1-51-57-49-106-46V-2H58v-803l194-32v293c13-6 25-10 38-17" id="h"/><path d="M58-804l194-31V-2H58v-802" id="i"/><path d="M532-584L301 66C268 195 164 247 8 204l3-113c37 19 114 28 146-3 19-18 38-48 44-80L-9-586h196c36 101 77 221 113 323l103-321h129" id="j"/><g id="a"><use transform="matrix(0.13333333333333333,0,0,0.13333333333333333,0,0)" xlink:href="#c"/><use transform="matrix(0.13333333333333333,0,0,0.13333333333333333,78.53333333333333,0)" xlink:href="#d"/><use transform="matrix(0.13333333333333333,0,0,0.13333333333333333,137.73333333333335,0)" xlink:href="#e"/><use transform="matrix(0.13333333333333333,0,0,0.13333333333333333,202.2666666666667,0)" xlink:href="#f"/><use transform="matrix(0.13333333333333333,0,0,0.13333333333333333,285.8666666666667,0)" xlink:href="#g"/><use transform="matrix(0.13333333333333333,0,0,0.13333333333333333,344.8,0)" xlink:href="#h"/><use transform="matrix(0.13333333333333333,0,0,0.13333333333333333,420.00000000000006,0)" xlink:href="#i"/><use transform="matrix(0.13333333333333333,0,0,0.13333333333333333,465.86666666666673,0)" xlink:href="#j"/></g><path d="M359-679c-33-7-57-31-97-21-24 16-10 76-14 117h84v116h-84V-2H54v-465H-7v-116h61c-3-139 84-198 212-207 27-1 69 17 93 19v92" id="k"/><path d="M273-594c178 0 268 111 268 290C541-119 449 7 267 7 91 7 0-104 0-282c0-185 90-312 273-312zm-37 112c-53 41-34 198-32 286 3 67 31 123 100 97 53-41 35-195 33-285-2-68-32-124-101-98" id="l"/><path d="M691-589c117 0 166 77 166 205V-2H663c-2-133 5-277-3-404-4-48-58-53-107-48 7 145 1 302 3 452H362c-2-133 4-276-3-404-2-50-55-52-105-48V-2H60v-566l194-29v55c78-48 199-74 259 6 71-35 130-53 178-53" id="m"/><g id="b"><use transform="matrix(0.02,0,0,0.02,0,0)" xlink:href="#k"/><use transform="matrix(0.02,0,0,0.02,7.140000000000001,0)" xlink:href="#d"/><use transform="matrix(0.02,0,0,0.02,16.48,0)" xlink:href="#l"/><use transform="matrix(0.02,0,0,0.02,27.64,0)" xlink:href="#m"/></g></defs></g></svg>